<svg width="31" height="38" viewBox="0 0 31 38" fill="none" xmlns="http://www.w3.org/2000/svg">

<path d="M1.3125 22.4347C3.08875 22.4347 5.56675 21.9062 7.1225 23.0472L10.206 25.3047C11.3522 26.1447 12.593 25.8682 13.8723 25.6687C15.5558 25.4045 17.0625 26.8412 17.0625 28.7102C17.0625 29.2212 13.4348 30.5215 12.9115 30.7682C12.4077 31.0064 11.8484 31.1027 11.294 31.0466C10.7395 30.9904 10.2109 30.7841 9.765 30.4497L6.286 27.9"
stroke="currentColor"
stroke-width="2.625"
stroke-linecap="round"
stroke-linejoin="round"/>

<path d="M17.0625 27.5625L24.2217 24.255C24.8531 24.0368 25.5341 24.0058 26.1827 24.1657C26.8313 24.3256 27.4199 24.6696 27.8775 25.1562L29.05 26.383C29.47 26.8205 29.372 27.559 28.8522 27.86L15.1077 35.8418C14.7017 36.0797 14.251 36.2316 13.7838 36.2879C13.3165 36.3442 12.8427 36.3037 12.3917 36.169L1.3125 32.8598M15.316 18.8125C15.316 18.8125 18.991 14.8942 18.991 10.0625C18.991 5.23075 15.316 1.3125 15.316 1.3125C15.316 1.3125 11.641 5.23075 11.641 10.0625C11.641 14.8942 15.316 18.8125 15.316 18.8125ZM15.316 18.8125C15.316 18.8125 20.6833 18.6935 24.066 15.2425C27.4487 11.7897 27.566 6.31225 27.566 6.31225C27.566 6.31225 25.3435 6.36125 22.8585 7.31675M15.316 18.8125C15.316 18.8125 9.94875 18.6935 6.566 15.2425C3.18325 11.7897 3.066 6.31225 3.066 6.31225C3.066 6.31225 5.2885 6.36125 7.7735 7.31675"
stroke="currentColor"
stroke-width="2.625"
stroke-linecap="round"
stroke-linejoin="round"/>

</svg>