<svg width="42" height="42" viewBox="0 0 42 42" fill="none" xmlns="http://www.w3.org/2000/svg">
  <path
    d="M15.3996 19.6005C13.5431 19.6005 11.7626 18.863 10.4499 17.5503C9.13711 16.2375 8.39961 14.4571 8.39961 12.6005V7.00054C8.39961 6.62923 8.54711 6.27314 8.80966 6.01059C9.07221 5.74804 9.42831 5.60054 9.79961 5.60054H11.1996C11.5709 5.60054 11.927 5.45304 12.1896 5.19049C12.4521 4.92794 12.5996 4.57184 12.5996 4.20054C12.5996 3.82923 12.4521 3.47314 12.1896 3.21059C11.927 2.94804 11.5709 2.80054 11.1996 2.80054H9.79961C8.6857 2.80054 7.61741 3.24304 6.82976 4.03069C6.04211 4.81834 5.59961 5.88663 5.59961 7.00054V12.6005C5.60141 14.1822 5.98709 15.7397 6.72353 17.1395C7.45997 18.5392 8.52515 19.7392 9.82761 20.6365C11.0802 21.7387 12.0959 23.0839 12.8131 24.5904C13.5302 26.0969 13.9339 27.7333 13.9996 29.4005C13.9996 31.9997 15.0321 34.4923 16.87 36.3302C18.7078 38.168 21.2005 39.2005 23.7996 39.2005C26.3987 39.2005 28.8914 38.168 30.7293 36.3302C32.5671 34.4923 33.5996 31.9997 33.5996 29.4005V27.8045C34.9193 27.4638 36.0695 26.6534 36.8345 25.5253C37.5994 24.3972 37.9267 23.0289 37.755 21.6767C37.5832 20.3246 36.9242 19.0815 35.9015 18.1805C34.8788 17.2795 33.5626 16.7824 32.1996 16.7824C30.8366 16.7824 29.5204 17.2795 28.4977 18.1805C27.475 19.0815 26.816 20.3246 26.6442 21.6767C26.4725 23.0289 26.7998 24.3972 27.5648 25.5253C28.3297 26.6534 29.4799 27.4638 30.7996 27.8045V29.4005C30.7996 31.2571 30.0621 33.0375 28.7494 34.3503C27.4366 35.663 25.6561 36.4005 23.7996 36.4005C21.9431 36.4005 20.1626 35.663 18.8499 34.3503C17.5371 33.0375 16.7996 31.2571 16.7996 29.4005C16.8689 27.7313 17.2769 26.0935 17.9989 24.5869C18.721 23.0803 19.7419 21.7362 20.9996 20.6365C22.2969 19.7361 23.3566 18.5347 24.0881 17.1352C24.8196 15.7356 25.2009 14.1797 25.1996 12.6005V7.00054C25.1996 5.88663 24.7571 4.81834 23.9695 4.03069C23.1818 3.24304 22.1135 2.80054 20.9996 2.80054H19.5996C19.2283 2.80054 18.8722 2.94804 18.6097 3.21059C18.3471 3.47314 18.1996 3.82923 18.1996 4.20054C18.1996 4.57184 18.3471 4.92794 18.6097 5.19049C18.8722 5.45304 19.2283 5.60054 19.5996 5.60054H20.9996C21.3709 5.60054 21.727 5.74804 21.9896 6.01059C22.2521 6.27314 22.3996 6.62923 22.3996 7.00054V12.6005C22.3996 13.5198 22.2186 14.43 21.8668 15.2793C21.515 16.1286 20.9994 16.9003 20.3494 17.5503C19.6993 18.2003 18.9277 18.7159 18.0784 19.0677C17.2291 19.4195 16.3189 19.6005 15.3996 19.6005ZM32.1996 25.2005C31.457 25.2005 30.7448 24.9055 30.2197 24.3804C29.6946 23.8553 29.3996 23.1431 29.3996 22.4005C29.3996 21.6579 29.6946 20.9457 30.2197 20.4206C30.7448 19.8955 31.457 19.6005 32.1996 19.6005C32.9422 19.6005 33.6544 19.8955 34.1795 20.4206C34.7046 20.9457 34.9996 21.6579 34.9996 22.4005C34.9996 23.1431 34.7046 23.8553 34.1795 24.3804C33.6544 24.9055 32.9422 25.2005 32.1996 25.2005Z"
    fill="currentColor"
  />
</svg>