<svg width="42" height="42" viewBox="0 0 42 42" fill="none" xmlns="http://www.w3.org/2000/svg">

<path
  d="M28.875 10.5007C26.2287 10.2636 23.625 11.8132 21 11.8132C18.375 11.8132 15.7705 10.2546 13.125 10.5007C7.875 10.9929 5.25 15.7507 5.25 23.6257C5.25 30.1882 10.5 39.3757 14.3719 39.3757C18.2437 39.3757 18.6326 37.407 21 37.407C23.3674 37.407 23.7554 39.3757 27.6281 39.3757C31.5008 39.3757 36.75 30.1882 36.75 23.6257C36.75 15.7507 34.3711 10.9929 28.875 10.5007Z"
  stroke="currentColor"
  stroke-width="2.625"
  stroke-miterlimit="10"
/>

<path
  d="M26.571 6.81993C24.8484 8.54259 22.8255 9.03478 21.746 9.18161C21.6473 9.19584 21.5466 9.18738 21.4517 9.15689C21.3567 9.1264 21.27 9.07467 21.198 9.00564C21.1261 8.93661 21.0708 8.85208 21.0364 8.75849C21.002 8.66489 20.9894 8.56468 20.9995 8.46548C21.1942 6.62023 22.0238 4.8999 23.3464 3.59856C25.1511 1.79388 27.1198 1.39192 28.1633 1.31399C28.2607 1.30511 28.3588 1.3181 28.4506 1.35204C28.5423 1.38598 28.6253 1.43999 28.6935 1.51013C28.7617 1.58027 28.8133 1.66477 28.8446 1.75743C28.8759 1.8501 28.8861 1.9486 28.8745 2.04571C28.6685 3.85177 27.8565 5.53472 26.571 6.81993Z"
  fill="currentColor"
/>

<path
  d="M17.7188 28.875C18.8061 28.875 19.6875 27.1121 19.6875 24.9375C19.6875 22.7629 18.8061 21 17.7188 21C16.6314 21 15.75 22.7629 15.75 24.9375C15.75 27.1121 16.6314 28.875 17.7188 28.875Z"
  fill="currentColor"
/>

<path
  d="M24.2812 28.875C25.3686 28.875 26.25 27.1121 26.25 24.9375C26.25 22.7629 25.3686 21 24.2812 21C23.1939 21 22.3125 22.7629 22.3125 24.9375C22.3125 27.1121 23.1939 28.875 24.2812 28.875Z"
  fill="currentColor"
/>

</svg>