<svg width="42" height="42" viewBox="0 0 42 42" fill="none" xmlns="http://www.w3.org/2000/svg">
  <path fill-rule="evenodd" clip-rule="evenodd"
    d="M9.5865 2.18799C9.212 2.18799 8.869 2.18799 8.5785 2.20724C8.267 2.22824 7.92575 2.27724 7.5775 2.42074C6.82719 2.73156 6.23107 3.32768 5.92025 4.07799C5.77675 4.42624 5.72775 4.76749 5.70675 5.07899C5.6875 5.36774 5.6875 5.71249 5.6875 6.08699V6.16399C5.6875 6.53849 5.6875 6.88149 5.70675 7.17199C5.72775 7.48349 5.77675 7.82474 5.92025 8.17299C6.23175 8.92199 6.8285 9.52049 7.5775 9.83024C7.91 9.96674 8.23725 10.0175 8.5365 10.0402L5.30775 12.6232C4.334 13.4021 3.54795 14.3901 3.00782 15.5139C2.4677 16.6378 2.18733 17.8688 2.1875 19.1157V30.7165C2.18788 32.6606 2.86965 34.543 4.11425 36.0365L4.1755 36.1117C4.7565 36.8082 5.131 37.258 5.551 37.6412C6.79532 38.7766 8.3552 39.5071 10.024 39.736C10.5875 39.813 11.1702 39.813 12.0785 39.813H18.375C18.7231 39.813 19.0569 39.6747 19.3031 39.4286C19.5492 39.1824 19.6875 38.8486 19.6875 38.5005C19.6875 38.1524 19.5492 37.8186 19.3031 37.5724C19.0569 37.3263 18.7231 37.188 18.375 37.188H12.1747C11.1388 37.188 10.745 37.1845 10.381 37.1355C9.23827 36.9788 8.17021 36.4783 7.3185 35.7005C7.049 35.4555 6.7935 35.1527 6.13025 34.3565C5.74599 33.8929 5.43658 33.3721 5.21325 32.813H18.375C18.7231 32.813 19.0569 32.6747 19.3031 32.4286C19.5492 32.1824 19.6875 31.8486 19.6875 31.5005C19.6875 31.1524 19.5492 30.8186 19.3031 30.5724C19.0569 30.3263 18.7231 30.188 18.375 30.188H4.8125V19.114C4.8125 19.0137 4.81542 18.9133 4.82125 18.813H30.1805C30.1852 18.9052 30.1875 18.9973 30.1875 19.0895V21.8755C30.1875 22.2236 30.3258 22.5574 30.5719 22.8036C30.8181 23.0497 31.1519 23.188 31.5 23.188C31.8481 23.188 32.1819 23.0497 32.4281 22.8036C32.6742 22.5574 32.8125 22.2236 32.8125 21.8755V19.0895C32.8126 17.851 32.5359 16.6281 32.0027 15.5103C31.4695 14.3924 30.6933 13.4078 29.7308 12.6285L26.5265 10.035C26.834 10.0136 27.1362 9.94449 27.4225 9.83024C28.1728 9.51942 28.7689 8.92329 29.0798 8.17299C29.2233 7.82474 29.2723 7.48349 29.2933 7.17199C29.3125 6.88324 29.3125 6.53849 29.3125 6.16399V6.08699C29.3125 5.71249 29.3125 5.36949 29.2933 5.07899C29.2771 4.73591 29.205 4.39778 29.0798 4.07799C28.7689 3.32768 28.1728 2.73156 27.4225 2.42074C27.1027 2.29548 26.7646 2.22336 26.4215 2.20724C26.1327 2.18799 25.788 2.18799 25.4135 2.18799H9.5865Z"
    fill="currentColor"/>
  
  <path d="M17.5 19.6875C17.8481 19.6875 18.1819 19.8258 18.4281 20.0719C18.6742 20.3181 18.8125 20.6519 18.8125 21V23.1875H21C21.3481 23.1875 21.6819 23.3258 21.9281 23.5719C22.1742 23.8181 22.3125 24.1519 22.3125 24.5C22.3125 24.8481 22.1742 25.1819 21.9281 25.4281C21.6819 25.6742 21.3481 25.8125 21 25.8125H18.8125V28C18.8125 28.3481 18.6742 28.6819 18.4281 28.9281C18.1819 29.1742 17.8481 29.3125 17.5 29.3125C17.1519 29.3125 16.8181 29.1742 16.5719 28.9281C16.3258 28.6819 16.1875 28.3481 16.1875 28V25.8125H14C13.6519 25.8125 13.3181 25.6742 13.0719 25.4281C12.8258 25.1819 12.6875 24.8481 12.6875 24.5C12.6875 24.1519 12.8258 23.8181 13.0719 23.5719C13.3181 23.3258 13.6519 23.1875 14 23.1875H16.1875V21C16.1875 20.6519 16.3258 20.3181 16.5719 20.0719C16.8181 19.8258 17.1519 19.6875 17.5 19.6875Z"
    fill="currentColor"/>

  <path fill-rule="evenodd" clip-rule="evenodd"
    d="M34.64 26.6105C32.4945 24.465 29.0102 24.339 26.8595 26.488L22.9902 30.359C20.8377 32.5098 20.9655 35.994 23.111 38.1395C25.2565 40.285 28.7407 40.411 30.8915 38.262L34.7607 34.391C36.9132 32.2403 36.7855 28.756 34.64 26.6105ZM28.7145 28.3465C29.7697 27.2913 31.5915 27.2738 32.7832 28.4673C33.975 29.6608 33.9592 31.4808 32.9057 32.536L32.3265 33.1135C31.8165 32.2551 31.199 31.4653 30.489 30.7633C29.7864 30.0531 28.996 29.4356 28.137 28.9258L28.7145 28.3465ZM30.293 34.8688L30.3822 35.0578L29.0347 36.4053C27.9812 37.4588 26.1595 37.4763 24.9677 36.2828C23.7742 35.091 23.7917 33.2693 24.8452 32.214L26.1927 30.8665L26.3817 30.9575C26.947 31.2375 27.7555 31.7433 28.6305 32.62C29.5072 33.495 30.013 34.3035 30.293 34.8688Z"
    fill="currentColor"/>
</svg>