<svg width="80" height="80" viewBox="0 0 80 80" fill="none" xmlns="http://www.w3.org/2000/svg">
<rect width="80" height="80" rx="40" fill="#23B234"/>
<g clip-path="url(#clip0_185_6852)">
<path d="M55.204 25.5508C51.268 21.6121 46.0344 19.4419 40.4583 19.4395C28.968 19.4395 19.6171 28.7873 19.6125 40.2772C19.6112 43.9499 20.5708 47.5351 22.3949 50.6953L19.4375 61.4937L30.4881 58.596C33.5328 60.2565 36.9608 61.1314 40.4494 61.1329H40.4582H40.4583C51.9468 61.1329 61.2991 51.7833 61.304 40.294C61.3059 34.7255 59.1394 29.4897 55.204 25.5508ZM40.4583 57.6133H40.4516C37.3421 57.6116 34.2928 56.7768 31.6331 55.1986L31.0001 54.8234L24.4424 56.5427L26.1932 50.1514L25.7808 49.4961C24.0463 46.7382 23.1307 43.5511 23.132 40.2785C23.1358 30.7285 30.9078 22.9592 40.4649 22.9592C45.0929 22.9611 49.4427 24.765 52.7141 28.0387C55.9854 31.3124 57.7856 35.6643 57.7842 40.2926C57.7801 49.8429 50.0078 57.6133 40.4583 57.6133Z" fill="#E0E0E0"/>
<path d="M20.3945 60.2959L23.2168 49.9908C21.4756 46.9749 20.56 43.5533 20.5611 40.0489C20.5657 29.0842 29.4894 20.1636 40.454 20.1636C45.7756 20.166 50.7703 22.237 54.5256 25.9958C58.2817 29.7547 60.349 34.7509 60.3468 40.0645C60.3423 51.0295 51.4179 59.9509 40.4548 59.9509C40.454 59.9509 40.4553 59.9509 40.4548 59.9509H40.4459C37.1167 59.9499 33.8455 59.1141 30.9401 57.5307L20.3945 60.2959Z" fill="url(#paint0_linear_185_6852)"/>
<path fill-rule="evenodd" clip-rule="evenodd" d="M35.3088 31.4305C34.9231 30.5731 34.5171 30.5559 34.1502 30.5409C33.8501 30.528 33.5065 30.5288 33.1635 30.5288C32.8202 30.5288 32.2623 30.6578 31.7906 31.173C31.3185 31.6883 29.9883 32.9338 29.9883 35.4669C29.9883 38.0003 31.8335 40.4482 32.0907 40.792C32.3482 41.1353 35.6526 46.4998 40.886 48.5636C45.2354 50.2788 46.1205 49.9376 47.0645 49.8518C48.0086 49.7659 50.1107 48.6065 50.5398 47.4042C50.969 46.2021 50.969 45.1717 50.8402 44.9563C50.7115 44.7417 50.3682 44.613 49.8533 44.3555C49.3383 44.0981 46.8071 42.8523 46.335 42.6806C45.863 42.509 45.5197 42.4232 45.1764 42.9387C44.8331 43.4536 43.8469 44.613 43.5465 44.9563C43.2462 45.3004 42.9458 45.3433 42.4308 45.0858C41.9159 44.8276 40.2576 44.2844 38.2904 42.5304C36.7598 41.1658 35.7264 39.4804 35.426 38.965C35.1256 38.45 35.3938 38.1711 35.6521 37.9144C35.8833 37.6838 36.167 37.3134 36.4245 37.0127C36.6814 36.7121 36.7673 36.4975 36.9389 36.1542C37.1106 35.8104 37.0247 35.5098 36.896 35.2523C36.7673 34.9948 35.7666 32.4486 35.3088 31.4305Z" fill="white"/>
<path d="M55.0356 25.4851C51.1448 21.5916 45.9713 19.4463 40.4592 19.4438C29.1007 19.4438 19.8572 28.6844 19.8527 40.0423C19.8513 43.673 20.8 47.217 22.6031 50.341L19.6797 61.0153L30.6034 58.1509C33.6132 59.7922 37.0019 60.6572 40.4504 60.6586H40.4591H40.4592C51.8159 60.6586 61.0607 51.4164 61.0655 40.059C61.0674 34.5545 58.9258 29.3788 55.0356 25.4851ZM40.4592 57.1795H40.4525C37.3787 57.1779 34.3644 56.3526 31.7353 54.7925L31.1095 54.4216L24.6272 56.1212L26.3578 49.8032L25.9502 49.1555C24.2356 46.4293 23.3304 43.2787 23.3318 40.0437C23.3355 30.6034 31.0183 22.9232 40.4657 22.9232C45.0406 22.9251 49.3404 24.7083 52.5744 27.9445C55.808 31.1806 57.5875 35.4825 57.5862 40.0577C57.5821 49.4983 49.899 57.1795 40.4592 57.1795Z" fill="white"/>
</g>
<defs>
<linearGradient id="paint0_linear_185_6852" x1="40.3707" y1="60.2959" x2="40.3707" y2="20.1636" gradientUnits="userSpaceOnUse">
<stop stop-color="#20B038"/>
<stop offset="1" stop-color="#60D66A"/>
</linearGradient>
<clipPath id="clip0_185_6852">
<rect width="41.8692" height="42.0542" fill="white" transform="translate(19.4375 19.4395)"/>
</clipPath>
</defs>
</svg>
